<?xml version="1.0" encoding="utf-8" standalone="no"?>
<!DOCTYPE svg PUBLIC "-//W3C//DTD SVG 1.1//EN"
  "http://www.w3.org/Graphics/SVG/1.1/DTD/svg11.dtd">
<svg xmlns:xlink="http://www.w3.org/1999/xlink" width="1011.317121pt" height="245.419571pt" viewBox="0 0 1011.317121 245.419571" xmlns="http://www.w3.org/2000/svg" version="1.1">
 <metadata>
  <rdf:RDF xmlns:dc="http://purl.org/dc/elements/1.1/" xmlns:cc="http://creativecommons.org/ns#" xmlns:rdf="http://www.w3.org/1999/02/22-rdf-syntax-ns#">
   <cc:Work>
    <dc:type rdf:resource="http://purl.org/dc/dcmitype/StillImage"/>
    <dc:date>2025-01-02T18:52:20.930534</dc:date>
    <dc:format>image/svg+xml</dc:format>
    <dc:creator>
     <cc:Agent>
      <dc:title>Matplotlib v3.8.3, https://matplotlib.org/</dc:title>
     </cc:Agent>
    </dc:creator>
   </cc:Work>
  </rdf:RDF>
 </metadata>
 <defs>
  <style type="text/css">*{stroke-linejoin: round; stroke-linecap: butt}</style>
 </defs>
 <g id="figure_1">
  <g id="patch_1">
   <path d="M 0 245.419571 
L 1011.317121 245.419571 
L 1011.317121 -0 
L 0 -0 
z
" style="fill: #ffffff"/>
  </g>
  <g id="axes_1">
   <g id="patch_2">
    <path d="M 486.979187 146.828162 
L 487.15054 146.826803 
L 487.321849 146.822725 
L 487.493072 146.81593 
L 487.664166 146.806418 
L 487.835087 146.794194 
L 488.005793 146.779259 
L 488.17624 146.761618 
L 488.346386 146.741274 
L 488.516188 146.718234 
L 488.685602 146.692502 
L 488.854588 146.664086 
L 489.023101 146.632992 
L 489.191099 146.599229 
L 489.358541 146.562804 
L 489.525384 146.523727 
L 489.691586 146.482008 
L 489.857105 146.437658 
L 490.021899 146.390686 
L 490.185927 146.341107 
L 490.349149 146.28893 
L 490.511521 146.234171 
L 490.673005 146.176843 
L 490.833559 146.116959 
L 490.993142 146.054536 
L 491.151715 145.989589 
L 491.309237 145.922134 
L 491.465669 145.852188 
L 491.620972 145.779769 
L 491.775107 145.704895 
L 491.928034 145.627585 
L 492.079715 145.547859 
L 492.230112 145.465736 
L 492.379187 145.381237 
L 492.526903 145.294383 
L 492.673222 145.205197 
L 492.818108 145.1137 
L 492.961524 145.019917 
L 493.103434 144.923869 
L 493.243802 144.825583 
L 493.382593 144.725081 
L 493.519772 144.62239 
L 493.655304 144.517536 
L 493.789156 144.410544 
L 493.921294 144.301442 
L 494.051683 144.190258 
L 494.180293 144.077018 
L 494.307089 143.961753 
L 494.432041 143.84449 
L 494.555116 143.725259 
L 494.676284 143.604091 
L 494.795515 143.481016 
L 494.912778 143.356064 
L 495.028043 143.229268 
L 495.141283 143.100658 
L 495.252467 142.970269 
L 495.361569 142.838131 
L 495.468561 142.704279 
L 495.573415 142.568747 
L 495.676106 142.431568 
L 495.776608 142.292777 
L 495.874894 142.152409 
L 495.970942 142.010499 
L 496.064725 141.867083 
L 496.156222 141.722197 
L 496.245408 141.575878 
L 496.332262 141.428162 
L 496.416761 141.279087 
L 496.498884 141.12869 
L 496.57861 140.977009 
L 496.65592 140.824082 
L 496.730794 140.669947 
L 496.803213 140.514644 
L 496.873159 140.358212 
L 496.940614 140.20069 
L 497.005561 140.042117 
L 497.067984 139.882534 
L 497.127868 139.72198 
L 497.185196 139.560496 
L 497.239955 139.398124 
L 497.292132 139.234902 
L 497.341711 139.070874 
L 497.388683 138.90608 
L 497.433033 138.740561 
L 497.474752 138.574359 
L 497.513829 138.407516 
L 497.550254 138.240074 
L 497.584017 138.072076 
L 497.615111 137.903563 
L 497.643527 137.734577 
L 497.669259 137.565163 
L 497.692299 137.395361 
L 497.712643 137.225215 
L 497.730284 137.054768 
L 497.745219 136.884062 
L 497.757443 136.713141 
L 497.766955 136.542047 
L 497.77375 136.370824 
L 497.777828 136.199515 
L 497.779187 136.028162 
L 497.779187 25.228162 
L 497.777828 25.05681 
L 497.77375 24.885501 
L 497.766955 24.714278 
L 497.757443 24.543184 
L 497.745219 24.372263 
L 497.730284 24.201557 
L 497.712643 24.03111 
L 497.692299 23.860964 
L 497.669259 23.691162 
L 497.643527 23.521747 
L 497.615111 23.352762 
L 497.584017 23.184249 
L 497.550254 23.01625 
L 497.513829 22.848809 
L 497.474752 22.681966 
L 497.433033 22.515764 
L 497.388683 22.350245 
L 497.341711 22.185451 
L 497.292132 22.021422 
L 497.239955 21.858201 
L 497.185196 21.695828 
L 497.127868 21.534345 
L 497.067984 21.373791 
L 497.005561 21.214208 
L 496.940614 21.055635 
L 496.873159 20.898113 
L 496.803213 20.74168 
L 496.730794 20.586377 
L 496.65592 20.432243 
L 496.57861 20.279316 
L 496.498884 20.127635 
L 496.416761 19.977238 
L 496.332262 19.828162 
L 496.245408 19.680447 
L 496.156222 19.534127 
L 496.064725 19.389242 
L 495.970942 19.245826 
L 495.874894 19.103916 
L 495.776608 18.963548 
L 495.676106 18.824757 
L 495.573415 18.687578 
L 495.468561 18.552045 
L 495.361569 18.418194 
L 495.252467 18.286056 
L 495.141283 18.155666 
L 495.028043 18.027057 
L 494.912778 17.900261 
L 494.795515 17.775309 
L 494.676284 17.652234 
L 494.555116 17.531065 
L 494.432041 17.411835 
L 494.307089 17.294572 
L 494.180293 17.179306 
L 494.051683 17.066067 
L 493.921294 16.954882 
L 493.789156 16.845781 
L 493.655304 16.738789 
L 493.519772 16.633934 
L 493.382593 16.531244 
L 493.243802 16.430742 
L 493.103434 16.332455 
L 492.961524 16.236408 
L 492.818108 16.142624 
L 492.673222 16.051128 
L 492.526903 15.961941 
L 492.379187 15.875088 
L 492.230112 15.790589 
L 492.079715 15.708466 
L 491.928034 15.628739 
L 491.775107 15.55143 
L 491.620972 15.476556 
L 491.465669 15.404137 
L 491.309237 15.334191 
L 491.151715 15.266736 
L 490.993142 15.201789 
L 490.833559 15.139365 
L 490.673005 15.079482 
L 490.511521 15.022153 
L 490.349149 14.967394 
L 490.185927 14.915218 
L 490.021899 14.865638 
L 489.857105 14.818667 
L 489.691586 14.774316 
L 489.525384 14.732597 
L 489.358541 14.693521 
L 489.191099 14.657096 
L 489.023101 14.623332 
L 488.854588 14.592239 
L 488.685602 14.563822 
L 488.516188 14.538091 
L 488.346386 14.51505 
L 488.17624 14.494707 
L 488.005793 14.477066 
L 487.835087 14.462131 
L 487.664166 14.449906 
L 487.493072 14.440395 
L 487.321849 14.4336 
L 487.15054 14.429522 
L 486.979187 14.428162 
L 60.041687 14.428162 
L 59.870335 14.429522 
L 59.699026 14.4336 
L 59.527803 14.440395 
L 59.356709 14.449906 
L 59.185788 14.462131 
L 59.015082 14.477066 
L 58.844635 14.494707 
L 58.674489 14.51505 
L 58.504687 14.538091 
L 58.335272 14.563822 
L 58.166287 14.592239 
L 57.997774 14.623332 
L 57.829775 14.657096 
L 57.662334 14.693521 
L 57.495491 14.732597 
L 57.329289 14.774316 
L 57.16377 14.818667 
L 56.998976 14.865638 
L 56.834947 14.915218 
L 56.671726 14.967394 
L 56.509353 15.022153 
L 56.34787 15.079482 
L 56.187316 15.139365 
L 56.027733 15.201789 
L 55.86916 15.266736 
L 55.711638 15.334191 
L 55.555205 15.404137 
L 55.399902 15.476556 
L 55.245768 15.55143 
L 55.092841 15.628739 
L 54.94116 15.708466 
L 54.790763 15.790589 
L 54.641687 15.875088 
L 54.493972 15.961941 
L 54.347652 16.051128 
L 54.202767 16.142624 
L 54.059351 16.236408 
L 53.917441 16.332455 
L 53.777073 16.430742 
L 53.638282 16.531244 
L 53.501103 16.633934 
L 53.36557 16.738789 
L 53.231719 16.845781 
L 53.099581 16.954882 
L 52.969191 17.066067 
L 52.840582 17.179306 
L 52.713786 17.294572 
L 52.588834 17.411835 
L 52.465759 17.531065 
L 52.34459 17.652234 
L 52.22536 17.775309 
L 52.108097 17.900261 
L 51.992831 18.027057 
L 51.879592 18.155666 
L 51.768407 18.286056 
L 51.659306 18.418194 
L 51.552314 18.552045 
L 51.447459 18.687578 
L 51.344769 18.824757 
L 51.244267 18.963548 
L 51.14598 19.103916 
L 51.049933 19.245826 
L 50.956149 19.389242 
L 50.864653 19.534127 
L 50.775466 19.680447 
L 50.688613 19.828162 
L 50.604114 19.977238 
L 50.521991 20.127635 
L 50.442264 20.279316 
L 50.364955 20.432243 
L 50.290081 20.586377 
L 50.217662 20.74168 
L 50.147716 20.898113 
L 50.080261 21.055635 
L 50.015314 21.214208 
L 49.95289 21.373791 
L 49.893007 21.534345 
L 49.835678 21.695828 
L 49.780919 21.858201 
L 49.728743 22.021422 
L 49.679163 22.185451 
L 49.632192 22.350245 
L 49.587841 22.515764 
L 49.546122 22.681966 
L 49.507046 22.848809 
L 49.470621 23.01625 
L 49.436857 23.184249 
L 49.405764 23.352762 
L 49.377347 23.521747 
L 49.351616 23.691162 
L 49.328575 23.860964 
L 49.308232 24.03111 
L 49.290591 24.201557 
L 49.275656 24.372263 
L 49.263431 24.543184 
L 49.25392 24.714278 
L 49.247125 24.885501 
L 49.243047 25.05681 
L 49.241687 25.228162 
L 49.241687 136.028162 
L 49.243047 136.199515 
L 49.247125 136.370824 
L 49.25392 136.542047 
L 49.263431 136.713141 
L 49.275656 136.884062 
L 49.290591 137.054768 
L 49.308232 137.225215 
L 49.328575 137.395361 
L 49.351616 137.565163 
L 49.377347 137.734577 
L 49.405764 137.903563 
L 49.436857 138.072076 
L 49.470621 138.240074 
L 49.507046 138.407516 
L 49.546122 138.574359 
L 49.587841 138.740561 
L 49.632192 138.90608 
L 49.679163 139.070874 
L 49.728743 139.234902 
L 49.780919 139.398124 
L 49.835678 139.560496 
L 49.893007 139.72198 
L 49.95289 139.882534 
L 50.015314 140.042117 
L 50.080261 140.20069 
L 50.147716 140.358212 
L 50.217662 140.514644 
L 50.290081 140.669947 
L 50.364955 140.824082 
L 50.442264 140.977009 
L 50.521991 141.12869 
L 50.604114 141.279087 
L 50.688613 141.428162 
L 50.775466 141.575878 
L 50.864653 141.722197 
L 50.956149 141.867083 
L 51.049933 142.010499 
L 51.14598 142.152409 
L 51.244267 142.292777 
L 51.344769 142.431568 
L 51.447459 142.568747 
L 51.552314 142.704279 
L 51.659306 142.838131 
L 51.768407 142.970269 
L 51.879592 143.100658 
L 51.992831 143.229268 
L 52.108097 143.356064 
L 52.22536 143.481016 
L 52.34459 143.604091 
L 52.465759 143.725259 
L 52.588834 143.84449 
L 52.713786 143.961753 
L 52.840582 144.077018 
L 52.969191 144.190258 
L 53.099581 144.301442 
L 53.231719 144.410544 
L 53.36557 144.517536 
L 53.501103 144.62239 
L 53.638282 144.725081 
L 53.777073 144.825583 
L 53.917441 144.923869 
L 54.059351 145.019917 
L 54.202767 145.1137 
L 54.347652 145.205197 
L 54.493972 145.294383 
L 54.641687 145.381237 
L 54.790763 145.465736 
L 54.94116 145.547859 
L 55.092841 145.627585 
L 55.245768 145.704895 
L 55.399902 145.779769 
L 55.555205 145.852188 
L 55.711638 145.922134 
L 55.86916 145.989589 
L 56.027733 146.054536 
L 56.187316 146.116959 
L 56.34787 146.176843 
L 56.509353 146.234171 
L 56.671726 146.28893 
L 56.834947 146.341107 
L 56.998976 146.390686 
L 57.16377 146.437658 
L 57.329289 146.482008 
L 57.495491 146.523727 
L 57.662334 146.562804 
L 57.829775 146.599229 
L 57.997774 146.632992 
L 58.166287 146.664086 
L 58.335272 146.692502 
L 58.504687 146.718234 
L 58.674489 146.741274 
L 58.844635 146.761618 
L 59.015082 146.779259 
L 59.185788 146.794194 
L 59.356709 146.806418 
L 59.527803 146.81593 
L 59.699026 146.822725 
L 59.870335 146.826803 
L 60.041687 146.828162 
L 486.979187 146.828162 
z
" clip-path="url(#pf25d7a1b14)" style="fill: none; stroke: #000000; stroke-width: 2; stroke-linecap: round"/>
   </g>
   <g id="line2d_1">
    <path d="M 79.404934 86.991409 
L 79.404934 50.991409 
L 195.968434 50.991409 
L 195.968434 122.991409 
L 79.404934 122.991409 
L 79.404934 86.991409 
" clip-path="url(#pf25d7a1b14)" style="fill: none; stroke: #000000; stroke-width: 2; stroke-linecap: round"/>
   </g>
   <g id="line2d_2">
    <path d="M 79.404934 86.991409 
L 79.404934 50.991409 
L 195.968434 50.991409 
L 195.968434 122.991409 
L 79.404934 122.991409 
L 79.404934 86.991409 
" clip-path="url(#pf25d7a1b14)" style="fill: none; stroke: #000000; stroke-width: 2; stroke-linecap: round"/>
   </g>
   <g id="line2d_3">
    <path d="M 79.404934 86.991409 
L 79.404934 50.991409 
L 195.968434 50.991409 
L 195.968434 122.991409 
L 79.404934 122.991409 
L 79.404934 86.991409 
" clip-path="url(#pf25d7a1b14)" style="fill: none; stroke: #000000; stroke-width: 2; stroke-linecap: round"/>
   </g>
   <g id="line2d_4">
    <path d="M 79.404934 86.991409 
L 79.404934 50.991409 
L 195.968434 50.991409 
L 195.968434 122.991409 
L 79.404934 122.991409 
L 79.404934 86.991409 
" clip-path="url(#pf25d7a1b14)" style="fill: none; stroke: #000000; stroke-width: 2; stroke-linecap: round"/>
   </g>
   <g id="line2d_5">
    <path d="M 198.204934 86.991409 
L 234.204934 86.991409 
L 261.204934 86.991409 
" clip-path="url(#pf25d7a1b14)" style="fill: none; stroke: #000000; stroke-width: 2; stroke-linecap: round"/>
   </g>
   <g id="patch_3">
    <path d="M 261.204934 84.291409 
L 270.204934 86.991409 
L 261.204934 89.691409 
z
" clip-path="url(#pf25d7a1b14)"/>
   </g>
   <g id="line2d_6">
    <path d="M 198.204934 86.991409 
L 234.204934 86.991409 
L 261.204934 86.991409 
" clip-path="url(#pf25d7a1b14)" style="fill: none; stroke: #000000; stroke-width: 2; stroke-linecap: round"/>
   </g>
   <g id="patch_4">
    <path d="M 261.204934 84.291409 
L 270.204934 86.991409 
L 261.204934 89.691409 
z
" clip-path="url(#pf25d7a1b14)"/>
   </g>
   <g id="line2d_7">
    <path d="M 270.204934 86.991409 
L 270.204934 50.991409 
L 418.047934 50.991409 
L 418.047934 122.991409 
L 270.204934 122.991409 
L 270.204934 86.991409 
" clip-path="url(#pf25d7a1b14)" style="fill: none; stroke: #000000; stroke-width: 2; stroke-linecap: round"/>
   </g>
   <g id="line2d_8">
    <path d="M 270.204934 86.991409 
L 270.204934 50.991409 
L 418.047934 50.991409 
L 418.047934 122.991409 
L 270.204934 122.991409 
L 270.204934 86.991409 
" clip-path="url(#pf25d7a1b14)" style="fill: none; stroke: #000000; stroke-width: 2; stroke-linecap: round"/>
   </g>
   <g id="line2d_9">
    <path d="M 270.204934 86.991409 
L 270.204934 50.991409 
L 418.047934 50.991409 
L 418.047934 122.991409 
L 270.204934 122.991409 
L 270.204934 86.991409 
" clip-path="url(#pf25d7a1b14)" style="fill: none; stroke: #000000; stroke-width: 2; stroke-linecap: round"/>
   </g>
   <g id="line2d_10">
    <path d="M 270.204934 86.991409 
L 270.204934 50.991409 
L 418.047934 50.991409 
L 418.047934 122.991409 
L 270.204934 122.991409 
L 270.204934 86.991409 
" clip-path="url(#pf25d7a1b14)" style="fill: none; stroke: #000000; stroke-width: 2; stroke-linecap: round"/>
   </g>
   <g id="line2d_11">
    <path d="M 418.047934 86.991409 
L 526.047934 86.991409 
L 625.047934 86.991409 
" clip-path="url(#pf25d7a1b14)" style="fill: none; stroke: #000000; stroke-width: 2; stroke-linecap: round"/>
   </g>
   <g id="patch_5">
    <path d="M 625.047934 84.291409 
L 634.047934 86.991409 
L 625.047934 89.691409 
z
" clip-path="url(#pf25d7a1b14)"/>
   </g>
   <g id="line2d_12">
    <path d="M 634.047934 86.991409 
L 634.047934 50.991409 
L 746.075434 50.991409 
L 746.075434 122.991409 
L 634.047934 122.991409 
L 634.047934 86.991409 
" clip-path="url(#pf25d7a1b14)" style="fill: none; stroke: #000000; stroke-width: 2; stroke-linecap: round"/>
   </g>
   <g id="line2d_13">
    <path d="M 746.075434 86.991409 
L 800.075434 86.991409 
L 845.075434 86.991409 
" clip-path="url(#pf25d7a1b14)" style="fill: none; stroke: #000000; stroke-width: 2; stroke-linecap: round"/>
   </g>
   <g id="patch_6">
    <path d="M 845.075434 84.291409 
L 854.075434 86.991409 
L 845.075434 89.691409 
z
" clip-path="url(#pf25d7a1b14)"/>
   </g>
   <g id="line2d_14">
    <path d="M 854.075434 86.991409 
L 854.075434 50.991409 
L 962.075434 50.991409 
L 962.075434 122.991409 
L 854.075434 122.991409 
L 854.075434 86.991409 
" clip-path="url(#pf25d7a1b14)" style="fill: none; stroke: #000000; stroke-width: 2; stroke-linecap: round"/>
   </g>
   <g id="line2d_15">
    <path d="M 79.404934 194.991409 
L 79.404934 158.991409 
L 187.404934 158.991409 
L 187.404934 230.991409 
L 79.404934 230.991409 
L 79.404934 194.991409 
" clip-path="url(#pf25d7a1b14)" style="fill: none; stroke: #000000; stroke-width: 2; stroke-linecap: round"/>
   </g>
   <g id="line2d_16">
    <path d="M 187.404934 194.991409 
L 344.126434 194.991409 
L 344.126434 131.991409 
" clip-path="url(#pf25d7a1b14)" style="fill: none; stroke: #000000; stroke-width: 2; stroke-linecap: round"/>
   </g>
   <g id="patch_7">
    <path d="M 341.426434 131.991409 
L 344.126434 122.991409 
L 346.826434 131.991409 
z
" clip-path="url(#pf25d7a1b14)"/>
   </g>
   <g id="text_1">
    <!-- Entwicklungs- -->
    <g transform="translate(94.286293 83.441995) scale(0.125 -0.125)">
     <defs>
      <path id="DejaVuSans-45" d="M 628 4666 
L 3578 4666 
L 3578 4134 
L 1259 4134 
L 1259 2753 
L 3481 2753 
L 3481 2222 
L 1259 2222 
L 1259 531 
L 3634 531 
L 3634 0 
L 628 0 
L 628 4666 
z
" transform="scale(0.015625)"/>
      <path id="DejaVuSans-6e" d="M 3513 2113 
L 3513 0 
L 2938 0 
L 2938 2094 
Q 2938 2591 2744 2837 
Q 2550 3084 2163 3084 
Q 1697 3084 1428 2787 
Q 1159 2491 1159 1978 
L 1159 0 
L 581 0 
L 581 3500 
L 1159 3500 
L 1159 2956 
Q 1366 3272 1645 3428 
Q 1925 3584 2291 3584 
Q 2894 3584 3203 3211 
Q 3513 2838 3513 2113 
z
" transform="scale(0.015625)"/>
      <path id="DejaVuSans-74" d="M 1172 4494 
L 1172 3500 
L 2356 3500 
L 2356 3053 
L 1172 3053 
L 1172 1153 
Q 1172 725 1289 603 
Q 1406 481 1766 481 
L 2356 481 
L 2356 0 
L 1766 0 
Q 1100 0 847 248 
Q 594 497 594 1153 
L 594 3053 
L 172 3053 
L 172 3500 
L 594 3500 
L 594 4494 
L 1172 4494 
z
" transform="scale(0.015625)"/>
      <path id="DejaVuSans-77" d="M 269 3500 
L 844 3500 
L 1563 769 
L 2278 3500 
L 2956 3500 
L 3675 769 
L 4391 3500 
L 4966 3500 
L 4050 0 
L 3372 0 
L 2619 2869 
L 1863 0 
L 1184 0 
L 269 3500 
z
" transform="scale(0.015625)"/>
      <path id="DejaVuSans-69" d="M 603 3500 
L 1178 3500 
L 1178 0 
L 603 0 
L 603 3500 
z
M 603 4863 
L 1178 4863 
L 1178 4134 
L 603 4134 
L 603 4863 
z
" transform="scale(0.015625)"/>
      <path id="DejaVuSans-63" d="M 3122 3366 
L 3122 2828 
Q 2878 2963 2633 3030 
Q 2388 3097 2138 3097 
Q 1578 3097 1268 2742 
Q 959 2388 959 1747 
Q 959 1106 1268 751 
Q 1578 397 2138 397 
Q 2388 397 2633 464 
Q 2878 531 3122 666 
L 3122 134 
Q 2881 22 2623 -34 
Q 2366 -91 2075 -91 
Q 1284 -91 818 406 
Q 353 903 353 1747 
Q 353 2603 823 3093 
Q 1294 3584 2113 3584 
Q 2378 3584 2631 3529 
Q 2884 3475 3122 3366 
z
" transform="scale(0.015625)"/>
      <path id="DejaVuSans-6b" d="M 581 4863 
L 1159 4863 
L 1159 1991 
L 2875 3500 
L 3609 3500 
L 1753 1863 
L 3688 0 
L 2938 0 
L 1159 1709 
L 1159 0 
L 581 0 
L 581 4863 
z
" transform="scale(0.015625)"/>
      <path id="DejaVuSans-6c" d="M 603 4863 
L 1178 4863 
L 1178 0 
L 603 0 
L 603 4863 
z
" transform="scale(0.015625)"/>
      <path id="DejaVuSans-75" d="M 544 1381 
L 544 3500 
L 1119 3500 
L 1119 1403 
Q 1119 906 1312 657 
Q 1506 409 1894 409 
Q 2359 409 2629 706 
Q 2900 1003 2900 1516 
L 2900 3500 
L 3475 3500 
L 3475 0 
L 2900 0 
L 2900 538 
Q 2691 219 2414 64 
Q 2138 -91 1772 -91 
Q 1169 -91 856 284 
Q 544 659 544 1381 
z
M 1991 3584 
L 1991 3584 
z
" transform="scale(0.015625)"/>
      <path id="DejaVuSans-67" d="M 2906 1791 
Q 2906 2416 2648 2759 
Q 2391 3103 1925 3103 
Q 1463 3103 1205 2759 
Q 947 2416 947 1791 
Q 947 1169 1205 825 
Q 1463 481 1925 481 
Q 2391 481 2648 825 
Q 2906 1169 2906 1791 
z
M 3481 434 
Q 3481 -459 3084 -895 
Q 2688 -1331 1869 -1331 
Q 1566 -1331 1297 -1286 
Q 1028 -1241 775 -1147 
L 775 -588 
Q 1028 -725 1275 -790 
Q 1522 -856 1778 -856 
Q 2344 -856 2625 -561 
Q 2906 -266 2906 331 
L 2906 616 
Q 2728 306 2450 153 
Q 2172 0 1784 0 
Q 1141 0 747 490 
Q 353 981 353 1791 
Q 353 2603 747 3093 
Q 1141 3584 1784 3584 
Q 2172 3584 2450 3431 
Q 2728 3278 2906 2969 
L 2906 3500 
L 3481 3500 
L 3481 434 
z
" transform="scale(0.015625)"/>
      <path id="DejaVuSans-73" d="M 2834 3397 
L 2834 2853 
Q 2591 2978 2328 3040 
Q 2066 3103 1784 3103 
Q 1356 3103 1142 2972 
Q 928 2841 928 2578 
Q 928 2378 1081 2264 
Q 1234 2150 1697 2047 
L 1894 2003 
Q 2506 1872 2764 1633 
Q 3022 1394 3022 966 
Q 3022 478 2636 193 
Q 2250 -91 1575 -91 
Q 1294 -91 989 -36 
Q 684 19 347 128 
L 347 722 
Q 666 556 975 473 
Q 1284 391 1588 391 
Q 1994 391 2212 530 
Q 2431 669 2431 922 
Q 2431 1156 2273 1281 
Q 2116 1406 1581 1522 
L 1381 1569 
Q 847 1681 609 1914 
Q 372 2147 372 2553 
Q 372 3047 722 3315 
Q 1072 3584 1716 3584 
Q 2034 3584 2315 3537 
Q 2597 3491 2834 3397 
z
" transform="scale(0.015625)"/>
      <path id="DejaVuSans-2d" d="M 313 2009 
L 1997 2009 
L 1997 1497 
L 313 1497 
L 313 2009 
z
" transform="scale(0.015625)"/>
     </defs>
     <use xlink:href="#DejaVuSans-45"/>
     <use xlink:href="#DejaVuSans-6e" x="63.183594"/>
     <use xlink:href="#DejaVuSans-74" x="126.5625"/>
     <use xlink:href="#DejaVuSans-77" x="165.771484"/>
     <use xlink:href="#DejaVuSans-69" x="247.558594"/>
     <use xlink:href="#DejaVuSans-63" x="275.341797"/>
     <use xlink:href="#DejaVuSans-6b" x="330.322266"/>
     <use xlink:href="#DejaVuSans-6c" x="388.232422"/>
     <use xlink:href="#DejaVuSans-75" x="416.015625"/>
     <use xlink:href="#DejaVuSans-6e" x="479.394531"/>
     <use xlink:href="#DejaVuSans-67" x="542.773438"/>
     <use xlink:href="#DejaVuSans-73" x="606.25"/>
     <use xlink:href="#DejaVuSans-2d" x="658.349609"/>
    </g>
    <!-- umgebung -->
    <g transform="translate(103.966958 97.439261) scale(0.125 -0.125)">
     <defs>
      <path id="DejaVuSans-6d" d="M 3328 2828 
Q 3544 3216 3844 3400 
Q 4144 3584 4550 3584 
Q 5097 3584 5394 3201 
Q 5691 2819 5691 2113 
L 5691 0 
L 5113 0 
L 5113 2094 
Q 5113 2597 4934 2840 
Q 4756 3084 4391 3084 
Q 3944 3084 3684 2787 
Q 3425 2491 3425 1978 
L 3425 0 
L 2847 0 
L 2847 2094 
Q 2847 2600 2669 2842 
Q 2491 3084 2119 3084 
Q 1678 3084 1418 2786 
Q 1159 2488 1159 1978 
L 1159 0 
L 581 0 
L 581 3500 
L 1159 3500 
L 1159 2956 
Q 1356 3278 1631 3431 
Q 1906 3584 2284 3584 
Q 2666 3584 2933 3390 
Q 3200 3197 3328 2828 
z
" transform="scale(0.015625)"/>
      <path id="DejaVuSans-65" d="M 3597 1894 
L 3597 1613 
L 953 1613 
Q 991 1019 1311 708 
Q 1631 397 2203 397 
Q 2534 397 2845 478 
Q 3156 559 3463 722 
L 3463 178 
Q 3153 47 2828 -22 
Q 2503 -91 2169 -91 
Q 1331 -91 842 396 
Q 353 884 353 1716 
Q 353 2575 817 3079 
Q 1281 3584 2069 3584 
Q 2775 3584 3186 3129 
Q 3597 2675 3597 1894 
z
M 3022 2063 
Q 3016 2534 2758 2815 
Q 2500 3097 2075 3097 
Q 1594 3097 1305 2825 
Q 1016 2553 972 2059 
L 3022 2063 
z
" transform="scale(0.015625)"/>
      <path id="DejaVuSans-62" d="M 3116 1747 
Q 3116 2381 2855 2742 
Q 2594 3103 2138 3103 
Q 1681 3103 1420 2742 
Q 1159 2381 1159 1747 
Q 1159 1113 1420 752 
Q 1681 391 2138 391 
Q 2594 391 2855 752 
Q 3116 1113 3116 1747 
z
M 1159 2969 
Q 1341 3281 1617 3432 
Q 1894 3584 2278 3584 
Q 2916 3584 3314 3078 
Q 3713 2572 3713 1747 
Q 3713 922 3314 415 
Q 2916 -91 2278 -91 
Q 1894 -91 1617 61 
Q 1341 213 1159 525 
L 1159 0 
L 581 0 
L 581 4863 
L 1159 4863 
L 1159 2969 
z
" transform="scale(0.015625)"/>
     </defs>
     <use xlink:href="#DejaVuSans-75"/>
     <use xlink:href="#DejaVuSans-6d" x="63.378906"/>
     <use xlink:href="#DejaVuSans-67" x="160.791016"/>
     <use xlink:href="#DejaVuSans-65" x="224.267578"/>
     <use xlink:href="#DejaVuSans-62" x="285.791016"/>
     <use xlink:href="#DejaVuSans-75" x="349.267578"/>
     <use xlink:href="#DejaVuSans-6e" x="412.646484"/>
     <use xlink:href="#DejaVuSans-67" x="476.025391"/>
    </g>
   </g>
   <g id="text_2">
    <!-- Entwicklungs- -->
    <g transform="translate(94.286293 83.441995) scale(0.125 -0.125)">
     <use xlink:href="#DejaVuSans-45"/>
     <use xlink:href="#DejaVuSans-6e" x="63.183594"/>
     <use xlink:href="#DejaVuSans-74" x="126.5625"/>
     <use xlink:href="#DejaVuSans-77" x="165.771484"/>
     <use xlink:href="#DejaVuSans-69" x="247.558594"/>
     <use xlink:href="#DejaVuSans-63" x="275.341797"/>
     <use xlink:href="#DejaVuSans-6b" x="330.322266"/>
     <use xlink:href="#DejaVuSans-6c" x="388.232422"/>
     <use xlink:href="#DejaVuSans-75" x="416.015625"/>
     <use xlink:href="#DejaVuSans-6e" x="479.394531"/>
     <use xlink:href="#DejaVuSans-67" x="542.773438"/>
     <use xlink:href="#DejaVuSans-73" x="606.25"/>
     <use xlink:href="#DejaVuSans-2d" x="658.349609"/>
    </g>
    <!-- umgebung -->
    <g transform="translate(103.966958 97.439261) scale(0.125 -0.125)">
     <use xlink:href="#DejaVuSans-75"/>
     <use xlink:href="#DejaVuSans-6d" x="63.378906"/>
     <use xlink:href="#DejaVuSans-67" x="160.791016"/>
     <use xlink:href="#DejaVuSans-65" x="224.267578"/>
     <use xlink:href="#DejaVuSans-62" x="285.791016"/>
     <use xlink:href="#DejaVuSans-75" x="349.267578"/>
     <use xlink:href="#DejaVuSans-6e" x="412.646484"/>
     <use xlink:href="#DejaVuSans-67" x="476.025391"/>
    </g>
   </g>
   <g id="text_3">
    <!-- Entwicklungs- -->
    <g transform="translate(94.286293 83.441995) scale(0.125 -0.125)">
     <use xlink:href="#DejaVuSans-45"/>
     <use xlink:href="#DejaVuSans-6e" x="63.183594"/>
     <use xlink:href="#DejaVuSans-74" x="126.5625"/>
     <use xlink:href="#DejaVuSans-77" x="165.771484"/>
     <use xlink:href="#DejaVuSans-69" x="247.558594"/>
     <use xlink:href="#DejaVuSans-63" x="275.341797"/>
     <use xlink:href="#DejaVuSans-6b" x="330.322266"/>
     <use xlink:href="#DejaVuSans-6c" x="388.232422"/>
     <use xlink:href="#DejaVuSans-75" x="416.015625"/>
     <use xlink:href="#DejaVuSans-6e" x="479.394531"/>
     <use xlink:href="#DejaVuSans-67" x="542.773438"/>
     <use xlink:href="#DejaVuSans-73" x="606.25"/>
     <use xlink:href="#DejaVuSans-2d" x="658.349609"/>
    </g>
    <!-- umgebung -->
    <g transform="translate(103.966958 97.439261) scale(0.125 -0.125)">
     <use xlink:href="#DejaVuSans-75"/>
     <use xlink:href="#DejaVuSans-6d" x="63.378906"/>
     <use xlink:href="#DejaVuSans-67" x="160.791016"/>
     <use xlink:href="#DejaVuSans-65" x="224.267578"/>
     <use xlink:href="#DejaVuSans-62" x="285.791016"/>
     <use xlink:href="#DejaVuSans-75" x="349.267578"/>
     <use xlink:href="#DejaVuSans-6e" x="412.646484"/>
     <use xlink:href="#DejaVuSans-67" x="476.025391"/>
    </g>
   </g>
   <g id="text_4">
    <!-- Entwicklungs- -->
    <g transform="translate(94.286293 83.441995) scale(0.125 -0.125)">
     <use xlink:href="#DejaVuSans-45"/>
     <use xlink:href="#DejaVuSans-6e" x="63.183594"/>
     <use xlink:href="#DejaVuSans-74" x="126.5625"/>
     <use xlink:href="#DejaVuSans-77" x="165.771484"/>
     <use xlink:href="#DejaVuSans-69" x="247.558594"/>
     <use xlink:href="#DejaVuSans-63" x="275.341797"/>
     <use xlink:href="#DejaVuSans-6b" x="330.322266"/>
     <use xlink:href="#DejaVuSans-6c" x="388.232422"/>
     <use xlink:href="#DejaVuSans-75" x="416.015625"/>
     <use xlink:href="#DejaVuSans-6e" x="479.394531"/>
     <use xlink:href="#DejaVuSans-67" x="542.773438"/>
     <use xlink:href="#DejaVuSans-73" x="606.25"/>
     <use xlink:href="#DejaVuSans-2d" x="658.349609"/>
    </g>
    <!-- umgebung -->
    <g transform="translate(103.966958 97.439261) scale(0.125 -0.125)">
     <use xlink:href="#DejaVuSans-75"/>
     <use xlink:href="#DejaVuSans-6d" x="63.378906"/>
     <use xlink:href="#DejaVuSans-67" x="160.791016"/>
     <use xlink:href="#DejaVuSans-65" x="224.267578"/>
     <use xlink:href="#DejaVuSans-62" x="285.791016"/>
     <use xlink:href="#DejaVuSans-75" x="349.267578"/>
     <use xlink:href="#DejaVuSans-6e" x="412.646484"/>
     <use xlink:href="#DejaVuSans-67" x="476.025391"/>
    </g>
   </g>
   <g id="text_5">
    <!-- Skript -->
    <g transform="translate(215.894387 75.3918) scale(0.125 -0.125)">
     <defs>
      <path id="DejaVuSans-53" d="M 3425 4513 
L 3425 3897 
Q 3066 4069 2747 4153 
Q 2428 4238 2131 4238 
Q 1616 4238 1336 4038 
Q 1056 3838 1056 3469 
Q 1056 3159 1242 3001 
Q 1428 2844 1947 2747 
L 2328 2669 
Q 3034 2534 3370 2195 
Q 3706 1856 3706 1288 
Q 3706 609 3251 259 
Q 2797 -91 1919 -91 
Q 1588 -91 1214 -16 
Q 841 59 441 206 
L 441 856 
Q 825 641 1194 531 
Q 1563 422 1919 422 
Q 2459 422 2753 634 
Q 3047 847 3047 1241 
Q 3047 1584 2836 1778 
Q 2625 1972 2144 2069 
L 1759 2144 
Q 1053 2284 737 2584 
Q 422 2884 422 3419 
Q 422 4038 858 4394 
Q 1294 4750 2059 4750 
Q 2388 4750 2728 4690 
Q 3069 4631 3425 4513 
z
" transform="scale(0.015625)"/>
      <path id="DejaVuSans-72" d="M 2631 2963 
Q 2534 3019 2420 3045 
Q 2306 3072 2169 3072 
Q 1681 3072 1420 2755 
Q 1159 2438 1159 1844 
L 1159 0 
L 581 0 
L 581 3500 
L 1159 3500 
L 1159 2956 
Q 1341 3275 1631 3429 
Q 1922 3584 2338 3584 
Q 2397 3584 2469 3576 
Q 2541 3569 2628 3553 
L 2631 2963 
z
" transform="scale(0.015625)"/>
      <path id="DejaVuSans-70" d="M 1159 525 
L 1159 -1331 
L 581 -1331 
L 581 3500 
L 1159 3500 
L 1159 2969 
Q 1341 3281 1617 3432 
Q 1894 3584 2278 3584 
Q 2916 3584 3314 3078 
Q 3713 2572 3713 1747 
Q 3713 922 3314 415 
Q 2916 -91 2278 -91 
Q 1894 -91 1617 61 
Q 1341 213 1159 525 
z
M 3116 1747 
Q 3116 2381 2855 2742 
Q 2594 3103 2138 3103 
Q 1681 3103 1420 2742 
Q 1159 2381 1159 1747 
Q 1159 1113 1420 752 
Q 1681 391 2138 391 
Q 2594 391 2855 752 
Q 3116 1113 3116 1747 
z
" transform="scale(0.015625)"/>
     </defs>
     <use xlink:href="#DejaVuSans-53"/>
     <use xlink:href="#DejaVuSans-6b" x="63.476562"/>
     <use xlink:href="#DejaVuSans-72" x="121.386719"/>
     <use xlink:href="#DejaVuSans-69" x="162.5"/>
     <use xlink:href="#DejaVuSans-70" x="190.283203"/>
     <use xlink:href="#DejaVuSans-74" x="253.759766"/>
    </g>
   </g>
   <g id="text_6">
    <!-- Skript -->
    <g transform="translate(215.894387 75.3918) scale(0.125 -0.125)">
     <use xlink:href="#DejaVuSans-53"/>
     <use xlink:href="#DejaVuSans-6b" x="63.476562"/>
     <use xlink:href="#DejaVuSans-72" x="121.386719"/>
     <use xlink:href="#DejaVuSans-69" x="162.5"/>
     <use xlink:href="#DejaVuSans-70" x="190.283203"/>
     <use xlink:href="#DejaVuSans-74" x="253.759766"/>
    </g>
   </g>
   <g id="text_7">
    <!-- Skript -->
    <g transform="translate(215.894387 75.3918) scale(0.125 -0.125)">
     <use xlink:href="#DejaVuSans-53"/>
     <use xlink:href="#DejaVuSans-6b" x="63.476562"/>
     <use xlink:href="#DejaVuSans-72" x="121.386719"/>
     <use xlink:href="#DejaVuSans-69" x="162.5"/>
     <use xlink:href="#DejaVuSans-70" x="190.283203"/>
     <use xlink:href="#DejaVuSans-74" x="253.759766"/>
    </g>
   </g>
   <g id="text_8">
    <!-- Skript -->
    <g transform="translate(215.894387 75.3918) scale(0.125 -0.125)">
     <use xlink:href="#DejaVuSans-53"/>
     <use xlink:href="#DejaVuSans-6b" x="63.476562"/>
     <use xlink:href="#DejaVuSans-72" x="121.386719"/>
     <use xlink:href="#DejaVuSans-69" x="162.5"/>
     <use xlink:href="#DejaVuSans-70" x="190.283203"/>
     <use xlink:href="#DejaVuSans-74" x="253.759766"/>
    </g>
   </g>
   <g id="text_9">
    <!-- Python Interpreter -->
    <g transform="translate(286.6987 90.440628) scale(0.125 -0.125)">
     <defs>
      <path id="DejaVuSans-50" d="M 1259 4147 
L 1259 2394 
L 2053 2394 
Q 2494 2394 2734 2622 
Q 2975 2850 2975 3272 
Q 2975 3691 2734 3919 
Q 2494 4147 2053 4147 
L 1259 4147 
z
M 628 4666 
L 2053 4666 
Q 2838 4666 3239 4311 
Q 3641 3956 3641 3272 
Q 3641 2581 3239 2228 
Q 2838 1875 2053 1875 
L 1259 1875 
L 1259 0 
L 628 0 
L 628 4666 
z
" transform="scale(0.015625)"/>
      <path id="DejaVuSans-79" d="M 2059 -325 
Q 1816 -950 1584 -1140 
Q 1353 -1331 966 -1331 
L 506 -1331 
L 506 -850 
L 844 -850 
Q 1081 -850 1212 -737 
Q 1344 -625 1503 -206 
L 1606 56 
L 191 3500 
L 800 3500 
L 1894 763 
L 2988 3500 
L 3597 3500 
L 2059 -325 
z
" transform="scale(0.015625)"/>
      <path id="DejaVuSans-68" d="M 3513 2113 
L 3513 0 
L 2938 0 
L 2938 2094 
Q 2938 2591 2744 2837 
Q 2550 3084 2163 3084 
Q 1697 3084 1428 2787 
Q 1159 2491 1159 1978 
L 1159 0 
L 581 0 
L 581 4863 
L 1159 4863 
L 1159 2956 
Q 1366 3272 1645 3428 
Q 1925 3584 2291 3584 
Q 2894 3584 3203 3211 
Q 3513 2838 3513 2113 
z
" transform="scale(0.015625)"/>
      <path id="DejaVuSans-6f" d="M 1959 3097 
Q 1497 3097 1228 2736 
Q 959 2375 959 1747 
Q 959 1119 1226 758 
Q 1494 397 1959 397 
Q 2419 397 2687 759 
Q 2956 1122 2956 1747 
Q 2956 2369 2687 2733 
Q 2419 3097 1959 3097 
z
M 1959 3584 
Q 2709 3584 3137 3096 
Q 3566 2609 3566 1747 
Q 3566 888 3137 398 
Q 2709 -91 1959 -91 
Q 1206 -91 779 398 
Q 353 888 353 1747 
Q 353 2609 779 3096 
Q 1206 3584 1959 3584 
z
" transform="scale(0.015625)"/>
      <path id="DejaVuSans-20" transform="scale(0.015625)"/>
      <path id="DejaVuSans-49" d="M 628 4666 
L 1259 4666 
L 1259 0 
L 628 0 
L 628 4666 
z
" transform="scale(0.015625)"/>
     </defs>
     <use xlink:href="#DejaVuSans-50"/>
     <use xlink:href="#DejaVuSans-79" x="60.302734"/>
     <use xlink:href="#DejaVuSans-74" x="119.482422"/>
     <use xlink:href="#DejaVuSans-68" x="158.691406"/>
     <use xlink:href="#DejaVuSans-6f" x="222.070312"/>
     <use xlink:href="#DejaVuSans-6e" x="283.251953"/>
     <use xlink:href="#DejaVuSans-20" x="346.630859"/>
     <use xlink:href="#DejaVuSans-49" x="378.417969"/>
     <use xlink:href="#DejaVuSans-6e" x="407.910156"/>
     <use xlink:href="#DejaVuSans-74" x="471.289062"/>
     <use xlink:href="#DejaVuSans-65" x="510.498047"/>
     <use xlink:href="#DejaVuSans-72" x="572.021484"/>
     <use xlink:href="#DejaVuSans-70" x="613.134766"/>
     <use xlink:href="#DejaVuSans-72" x="676.611328"/>
     <use xlink:href="#DejaVuSans-65" x="715.474609"/>
     <use xlink:href="#DejaVuSans-74" x="776.998047"/>
     <use xlink:href="#DejaVuSans-65" x="816.207031"/>
     <use xlink:href="#DejaVuSans-72" x="877.730469"/>
    </g>
   </g>
   <g id="text_10">
    <!-- Python Interpreter -->
    <g transform="translate(286.6987 90.440628) scale(0.125 -0.125)">
     <use xlink:href="#DejaVuSans-50"/>
     <use xlink:href="#DejaVuSans-79" x="60.302734"/>
     <use xlink:href="#DejaVuSans-74" x="119.482422"/>
     <use xlink:href="#DejaVuSans-68" x="158.691406"/>
     <use xlink:href="#DejaVuSans-6f" x="222.070312"/>
     <use xlink:href="#DejaVuSans-6e" x="283.251953"/>
     <use xlink:href="#DejaVuSans-20" x="346.630859"/>
     <use xlink:href="#DejaVuSans-49" x="378.417969"/>
     <use xlink:href="#DejaVuSans-6e" x="407.910156"/>
     <use xlink:href="#DejaVuSans-74" x="471.289062"/>
     <use xlink:href="#DejaVuSans-65" x="510.498047"/>
     <use xlink:href="#DejaVuSans-72" x="572.021484"/>
     <use xlink:href="#DejaVuSans-70" x="613.134766"/>
     <use xlink:href="#DejaVuSans-72" x="676.611328"/>
     <use xlink:href="#DejaVuSans-65" x="715.474609"/>
     <use xlink:href="#DejaVuSans-74" x="776.998047"/>
     <use xlink:href="#DejaVuSans-65" x="816.207031"/>
     <use xlink:href="#DejaVuSans-72" x="877.730469"/>
    </g>
   </g>
   <g id="text_11">
    <!-- Python Interpreter -->
    <g transform="translate(286.6987 90.440628) scale(0.125 -0.125)">
     <use xlink:href="#DejaVuSans-50"/>
     <use xlink:href="#DejaVuSans-79" x="60.302734"/>
     <use xlink:href="#DejaVuSans-74" x="119.482422"/>
     <use xlink:href="#DejaVuSans-68" x="158.691406"/>
     <use xlink:href="#DejaVuSans-6f" x="222.070312"/>
     <use xlink:href="#DejaVuSans-6e" x="283.251953"/>
     <use xlink:href="#DejaVuSans-20" x="346.630859"/>
     <use xlink:href="#DejaVuSans-49" x="378.417969"/>
     <use xlink:href="#DejaVuSans-6e" x="407.910156"/>
     <use xlink:href="#DejaVuSans-74" x="471.289062"/>
     <use xlink:href="#DejaVuSans-65" x="510.498047"/>
     <use xlink:href="#DejaVuSans-72" x="572.021484"/>
     <use xlink:href="#DejaVuSans-70" x="613.134766"/>
     <use xlink:href="#DejaVuSans-72" x="676.611328"/>
     <use xlink:href="#DejaVuSans-65" x="715.474609"/>
     <use xlink:href="#DejaVuSans-74" x="776.998047"/>
     <use xlink:href="#DejaVuSans-65" x="816.207031"/>
     <use xlink:href="#DejaVuSans-72" x="877.730469"/>
    </g>
   </g>
   <g id="text_12">
    <!-- Python Interpreter -->
    <g transform="translate(286.6987 90.440628) scale(0.125 -0.125)">
     <use xlink:href="#DejaVuSans-50"/>
     <use xlink:href="#DejaVuSans-79" x="60.302734"/>
     <use xlink:href="#DejaVuSans-74" x="119.482422"/>
     <use xlink:href="#DejaVuSans-68" x="158.691406"/>
     <use xlink:href="#DejaVuSans-6f" x="222.070312"/>
     <use xlink:href="#DejaVuSans-6e" x="283.251953"/>
     <use xlink:href="#DejaVuSans-20" x="346.630859"/>
     <use xlink:href="#DejaVuSans-49" x="378.417969"/>
     <use xlink:href="#DejaVuSans-6e" x="407.910156"/>
     <use xlink:href="#DejaVuSans-74" x="471.289062"/>
     <use xlink:href="#DejaVuSans-65" x="510.498047"/>
     <use xlink:href="#DejaVuSans-72" x="572.021484"/>
     <use xlink:href="#DejaVuSans-70" x="613.134766"/>
     <use xlink:href="#DejaVuSans-72" x="676.611328"/>
     <use xlink:href="#DejaVuSans-65" x="715.474609"/>
     <use xlink:href="#DejaVuSans-74" x="776.998047"/>
     <use xlink:href="#DejaVuSans-65" x="816.207031"/>
     <use xlink:href="#DejaVuSans-72" x="877.730469"/>
    </g>
   </g>
   <g id="text_13">
    <!-- Integrierte Entwicklungsumgebung IDE -->
    <g transform="translate(56.004934 30.689456) scale(0.125 -0.125)">
     <defs>
      <path id="DejaVuSans-44" d="M 1259 4147 
L 1259 519 
L 2022 519 
Q 2988 519 3436 956 
Q 3884 1394 3884 2338 
Q 3884 3275 3436 3711 
Q 2988 4147 2022 4147 
L 1259 4147 
z
M 628 4666 
L 1925 4666 
Q 3281 4666 3915 4102 
Q 4550 3538 4550 2338 
Q 4550 1131 3912 565 
Q 3275 0 1925 0 
L 628 0 
L 628 4666 
z
" transform="scale(0.015625)"/>
     </defs>
     <use xlink:href="#DejaVuSans-49"/>
     <use xlink:href="#DejaVuSans-6e" x="29.492188"/>
     <use xlink:href="#DejaVuSans-74" x="92.871094"/>
     <use xlink:href="#DejaVuSans-65" x="132.080078"/>
     <use xlink:href="#DejaVuSans-67" x="193.603516"/>
     <use xlink:href="#DejaVuSans-72" x="257.080078"/>
     <use xlink:href="#DejaVuSans-69" x="298.193359"/>
     <use xlink:href="#DejaVuSans-65" x="325.976562"/>
     <use xlink:href="#DejaVuSans-72" x="387.5"/>
     <use xlink:href="#DejaVuSans-74" x="428.613281"/>
     <use xlink:href="#DejaVuSans-65" x="467.822266"/>
     <use xlink:href="#DejaVuSans-20" x="529.345703"/>
     <use xlink:href="#DejaVuSans-45" x="561.132812"/>
     <use xlink:href="#DejaVuSans-6e" x="624.316406"/>
     <use xlink:href="#DejaVuSans-74" x="687.695312"/>
     <use xlink:href="#DejaVuSans-77" x="726.904297"/>
     <use xlink:href="#DejaVuSans-69" x="808.691406"/>
     <use xlink:href="#DejaVuSans-63" x="836.474609"/>
     <use xlink:href="#DejaVuSans-6b" x="891.455078"/>
     <use xlink:href="#DejaVuSans-6c" x="949.365234"/>
     <use xlink:href="#DejaVuSans-75" x="977.148438"/>
     <use xlink:href="#DejaVuSans-6e" x="1040.527344"/>
     <use xlink:href="#DejaVuSans-67" x="1103.90625"/>
     <use xlink:href="#DejaVuSans-73" x="1167.382812"/>
     <use xlink:href="#DejaVuSans-75" x="1219.482422"/>
     <use xlink:href="#DejaVuSans-6d" x="1282.861328"/>
     <use xlink:href="#DejaVuSans-67" x="1380.273438"/>
     <use xlink:href="#DejaVuSans-65" x="1443.75"/>
     <use xlink:href="#DejaVuSans-62" x="1505.273438"/>
     <use xlink:href="#DejaVuSans-75" x="1568.75"/>
     <use xlink:href="#DejaVuSans-6e" x="1632.128906"/>
     <use xlink:href="#DejaVuSans-67" x="1695.507812"/>
     <use xlink:href="#DejaVuSans-20" x="1758.984375"/>
     <use xlink:href="#DejaVuSans-49" x="1790.771484"/>
     <use xlink:href="#DejaVuSans-44" x="1820.263672"/>
     <use xlink:href="#DejaVuSans-45" x="1897.265625"/>
    </g>
   </g>
   <g id="text_14">
    <!-- Maschinencode -->
    <g transform="translate(513.593833 78.9918) scale(0.125 -0.125)">
     <defs>
      <path id="DejaVuSans-4d" d="M 628 4666 
L 1569 4666 
L 2759 1491 
L 3956 4666 
L 4897 4666 
L 4897 0 
L 4281 0 
L 4281 4097 
L 3078 897 
L 2444 897 
L 1241 4097 
L 1241 0 
L 628 0 
L 628 4666 
z
" transform="scale(0.015625)"/>
      <path id="DejaVuSans-61" d="M 2194 1759 
Q 1497 1759 1228 1600 
Q 959 1441 959 1056 
Q 959 750 1161 570 
Q 1363 391 1709 391 
Q 2188 391 2477 730 
Q 2766 1069 2766 1631 
L 2766 1759 
L 2194 1759 
z
M 3341 1997 
L 3341 0 
L 2766 0 
L 2766 531 
Q 2569 213 2275 61 
Q 1981 -91 1556 -91 
Q 1019 -91 701 211 
Q 384 513 384 1019 
Q 384 1609 779 1909 
Q 1175 2209 1959 2209 
L 2766 2209 
L 2766 2266 
Q 2766 2663 2505 2880 
Q 2244 3097 1772 3097 
Q 1472 3097 1187 3025 
Q 903 2953 641 2809 
L 641 3341 
Q 956 3463 1253 3523 
Q 1550 3584 1831 3584 
Q 2591 3584 2966 3190 
Q 3341 2797 3341 1997 
z
" transform="scale(0.015625)"/>
      <path id="DejaVuSans-64" d="M 2906 2969 
L 2906 4863 
L 3481 4863 
L 3481 0 
L 2906 0 
L 2906 525 
Q 2725 213 2448 61 
Q 2172 -91 1784 -91 
Q 1150 -91 751 415 
Q 353 922 353 1747 
Q 353 2572 751 3078 
Q 1150 3584 1784 3584 
Q 2172 3584 2448 3432 
Q 2725 3281 2906 2969 
z
M 947 1747 
Q 947 1113 1208 752 
Q 1469 391 1925 391 
Q 2381 391 2643 752 
Q 2906 1113 2906 1747 
Q 2906 2381 2643 2742 
Q 2381 3103 1925 3103 
Q 1469 3103 1208 2742 
Q 947 2381 947 1747 
z
" transform="scale(0.015625)"/>
     </defs>
     <use xlink:href="#DejaVuSans-4d"/>
     <use xlink:href="#DejaVuSans-61" x="86.279297"/>
     <use xlink:href="#DejaVuSans-73" x="147.558594"/>
     <use xlink:href="#DejaVuSans-63" x="199.658203"/>
     <use xlink:href="#DejaVuSans-68" x="254.638672"/>
     <use xlink:href="#DejaVuSans-69" x="318.017578"/>
     <use xlink:href="#DejaVuSans-6e" x="345.800781"/>
     <use xlink:href="#DejaVuSans-65" x="409.179688"/>
     <use xlink:href="#DejaVuSans-6e" x="470.703125"/>
     <use xlink:href="#DejaVuSans-63" x="534.082031"/>
     <use xlink:href="#DejaVuSans-6f" x="589.0625"/>
     <use xlink:href="#DejaVuSans-64" x="650.244141"/>
     <use xlink:href="#DejaVuSans-65" x="713.720703"/>
    </g>
   </g>
   <g id="text_15">
    <!-- ausführender -->
    <g transform="translate(648.274575 83.441995) scale(0.125 -0.125)">
     <defs>
      <path id="DejaVuSans-66" d="M 2375 4863 
L 2375 4384 
L 1825 4384 
Q 1516 4384 1395 4259 
Q 1275 4134 1275 3809 
L 1275 3500 
L 2222 3500 
L 2222 3053 
L 1275 3053 
L 1275 0 
L 697 0 
L 697 3053 
L 147 3053 
L 147 3500 
L 697 3500 
L 697 3744 
Q 697 4328 969 4595 
Q 1241 4863 1831 4863 
L 2375 4863 
z
" transform="scale(0.015625)"/>
      <path id="DejaVuSans-fc" d="M 544 1381 
L 544 3500 
L 1119 3500 
L 1119 1403 
Q 1119 906 1312 657 
Q 1506 409 1894 409 
Q 2359 409 2629 706 
Q 2900 1003 2900 1516 
L 2900 3500 
L 3475 3500 
L 3475 0 
L 2900 0 
L 2900 538 
Q 2691 219 2414 64 
Q 2138 -91 1772 -91 
Q 1169 -91 856 284 
Q 544 659 544 1381 
z
M 1991 3584 
L 1991 3584 
z
M 2278 4850 
L 2912 4850 
L 2912 4219 
L 2278 4219 
L 2278 4850 
z
M 1056 4850 
L 1690 4850 
L 1690 4219 
L 1056 4219 
L 1056 4850 
z
" transform="scale(0.015625)"/>
     </defs>
     <use xlink:href="#DejaVuSans-61"/>
     <use xlink:href="#DejaVuSans-75" x="61.279297"/>
     <use xlink:href="#DejaVuSans-73" x="124.658203"/>
     <use xlink:href="#DejaVuSans-66" x="176.757812"/>
     <use xlink:href="#DejaVuSans-fc" x="211.962891"/>
     <use xlink:href="#DejaVuSans-68" x="275.341797"/>
     <use xlink:href="#DejaVuSans-72" x="338.720703"/>
     <use xlink:href="#DejaVuSans-65" x="377.583984"/>
     <use xlink:href="#DejaVuSans-6e" x="439.107422"/>
     <use xlink:href="#DejaVuSans-64" x="502.486328"/>
     <use xlink:href="#DejaVuSans-65" x="565.962891"/>
     <use xlink:href="#DejaVuSans-72" x="627.486328"/>
    </g>
    <!-- Computer -->
    <g transform="translate(658.991372 97.439261) scale(0.125 -0.125)">
     <defs>
      <path id="DejaVuSans-43" d="M 4122 4306 
L 4122 3641 
Q 3803 3938 3442 4084 
Q 3081 4231 2675 4231 
Q 1875 4231 1450 3742 
Q 1025 3253 1025 2328 
Q 1025 1406 1450 917 
Q 1875 428 2675 428 
Q 3081 428 3442 575 
Q 3803 722 4122 1019 
L 4122 359 
Q 3791 134 3420 21 
Q 3050 -91 2638 -91 
Q 1578 -91 968 557 
Q 359 1206 359 2328 
Q 359 3453 968 4101 
Q 1578 4750 2638 4750 
Q 3056 4750 3426 4639 
Q 3797 4528 4122 4306 
z
" transform="scale(0.015625)"/>
     </defs>
     <use xlink:href="#DejaVuSans-43"/>
     <use xlink:href="#DejaVuSans-6f" x="69.824219"/>
     <use xlink:href="#DejaVuSans-6d" x="131.005859"/>
     <use xlink:href="#DejaVuSans-70" x="228.417969"/>
     <use xlink:href="#DejaVuSans-75" x="291.894531"/>
     <use xlink:href="#DejaVuSans-74" x="355.273438"/>
     <use xlink:href="#DejaVuSans-65" x="394.482422"/>
     <use xlink:href="#DejaVuSans-72" x="456.005859"/>
    </g>
   </g>
   <g id="text_16">
    <!-- Ergebnis -->
    <g transform="translate(772.931879 75.3918) scale(0.125 -0.125)">
     <use xlink:href="#DejaVuSans-45"/>
     <use xlink:href="#DejaVuSans-72" x="63.183594"/>
     <use xlink:href="#DejaVuSans-67" x="102.546875"/>
     <use xlink:href="#DejaVuSans-65" x="166.023438"/>
     <use xlink:href="#DejaVuSans-62" x="227.546875"/>
     <use xlink:href="#DejaVuSans-6e" x="291.023438"/>
     <use xlink:href="#DejaVuSans-69" x="354.402344"/>
     <use xlink:href="#DejaVuSans-73" x="382.185547"/>
    </g>
   </g>
   <g id="text_17">
    <!-- Ausgabe -->
    <g transform="translate(880.971918 90.440628) scale(0.125 -0.125)">
     <defs>
      <path id="DejaVuSans-41" d="M 2188 4044 
L 1331 1722 
L 3047 1722 
L 2188 4044 
z
M 1831 4666 
L 2547 4666 
L 4325 0 
L 3669 0 
L 3244 1197 
L 1141 1197 
L 716 0 
L 50 0 
L 1831 4666 
z
" transform="scale(0.015625)"/>
     </defs>
     <use xlink:href="#DejaVuSans-41"/>
     <use xlink:href="#DejaVuSans-75" x="68.408203"/>
     <use xlink:href="#DejaVuSans-73" x="131.787109"/>
     <use xlink:href="#DejaVuSans-67" x="183.886719"/>
     <use xlink:href="#DejaVuSans-61" x="247.363281"/>
     <use xlink:href="#DejaVuSans-62" x="308.642578"/>
     <use xlink:href="#DejaVuSans-65" x="372.119141"/>
    </g>
   </g>
   <g id="text_18">
    <!-- Konsole -->
    <g transform="translate(109.171536 198.440628) scale(0.125 -0.125)">
     <defs>
      <path id="DejaVuSans-4b" d="M 628 4666 
L 1259 4666 
L 1259 2694 
L 3353 4666 
L 4166 4666 
L 1850 2491 
L 4331 0 
L 3500 0 
L 1259 2247 
L 1259 0 
L 628 0 
L 628 4666 
z
" transform="scale(0.015625)"/>
     </defs>
     <use xlink:href="#DejaVuSans-4b"/>
     <use xlink:href="#DejaVuSans-6f" x="60.576172"/>
     <use xlink:href="#DejaVuSans-6e" x="121.757812"/>
     <use xlink:href="#DejaVuSans-73" x="185.136719"/>
     <use xlink:href="#DejaVuSans-6f" x="237.236328"/>
     <use xlink:href="#DejaVuSans-6c" x="298.417969"/>
     <use xlink:href="#DejaVuSans-65" x="326.201172"/>
    </g>
   </g>
   <g id="text_19">
    <!-- Eingaben -->
    <g transform="translate(347.726434 162.440628) scale(0.125 -0.125)">
     <use xlink:href="#DejaVuSans-45"/>
     <use xlink:href="#DejaVuSans-69" x="63.183594"/>
     <use xlink:href="#DejaVuSans-6e" x="90.966797"/>
     <use xlink:href="#DejaVuSans-67" x="154.345703"/>
     <use xlink:href="#DejaVuSans-61" x="217.822266"/>
     <use xlink:href="#DejaVuSans-62" x="279.101562"/>
     <use xlink:href="#DejaVuSans-65" x="342.578125"/>
     <use xlink:href="#DejaVuSans-6e" x="404.101562"/>
    </g>
   </g>
  </g>
 </g>
 <defs>
  <clipPath id="pf25d7a1b14">
   <rect x="3.6" y="3.6" width="1004.117121" height="238.219571"/>
  </clipPath>
 </defs>
</svg>
